<svg xmlns="http://www.w3.org/2000/svg" viewBox="0 0 429.354 429.354"><path d="M372.53 82.843C336.673 30.958 277.621-.009 214.55 0 108.512.115 22.644 86.17 22.759 192.208c.107 98.751 75.105 181.317 173.392 190.888L163.638 415.6a8 8 0 00-.196 11.312 8 8 0 0011.508 0l45.248-45.248a7.911 7.911 0 001.736-2.608 8 8 0 000-6.112 7.911 7.911 0 00-1.736-2.608l-45.248-45.248a8 8 0 00-11.312 11.312l30.4 30.4C97.56 355.44 28.559 268.019 39.919 171.541S138.7 6.061 235.178 17.422s165.48 98.781 154.119 195.259A175.89 175.89 0 01314.63 336.8a8 8 0 109.104 13.152c87.235-60.286 109.081-179.874 48.796-267.109z"/></svg>