<svg viewBox="0 0 64 64" xmlns="http://www.w3.org/2000/svg"><path d="M27 59.001c-14.888 0-27-12.113-27-27.002C0 17.111 12.112 4.998 27 4.998a1 1 0 110 2c-13.785 0-25 11.215-25 25.001s11.215 25.002 25 25.002a1 1 0 110 2zM50.006 59.002a1 1 0 110-2c4.963 0 9-4.037 9-9 0-4.454-3.32-8.284-7.723-8.909a1.001 1.001 0 01.281-1.981c5.383.764 9.441 5.445 9.441 10.89.001 6.065-4.934 11-10.999 11z"/><path d="M52.068 38.182a1 1 0 01-.317-1.949A14.99 14.99 0 0062 21.999c0-8.271-6.729-15.001-15-15.001a1 1 0 110-2c9.374 0 17 7.626 17 17.001A16.989 16.989 0 0152.386 38.13a1.008 1.008 0 01-.318.052z"/><path d="M47 6.998H27a1 1 0 110-2h20a1 1 0 110 2zM50.006 59.002H27a1 1 0 110-2h23.006a1 1 0 110 2zM32 49.006a1 1 0 01-1-1c0-13.788 11.215-25.005 25-25.005a1 1 0 110 2c-12.683 0-23 10.32-23 23.005a1 1 0 01-1 1z"/><path d="M32 49.006a1 1 0 110-2c12.683 0 23-10.32 23-23.005a1 1 0 112 0c0 13.788-11.215 25.005-25 25.005z"/><path d="M32 49.006a1 1 0 01-1-1c0-12.685-10.317-23.005-23-23.005a1 1 0 110-2c13.785 0 25 11.217 25 25.005a1 1 0 01-1 1z"/><path d="M32 49.006c-13.785 0-25-11.217-25-25.005a1 1 0 112 0c0 12.685 10.317 23.005 23 23.005a1 1 0 110 2zM30.158 39.763h-.002a1 1 0 01-.998-1.002A24.94 24.94 0 0144.605 15.72a1.001 1.001 0 01.766 1.848 22.949 22.949 0 00-14.213 21.197 1 1 0 01-1 .998z"/><path d="M46.824 26.813a1 1 0 01-1-1 22.882 22.882 0 00-1.76-8.788 1 1 0 011.848-.766 24.862 24.862 0 011.912 9.552 1 1 0 01-1 1.002z"/><g><path d="M26.791 22.832a1 1 0 01-.924-1.384 24.867 24.867 0 015.426-8.096 1 1 0 011.414 1.415 22.878 22.878 0 00-4.992 7.447c-.16.385-.532.618-.924.618z"/><path d="M37.205 22.833a1 1 0 01-.924-.618 22.912 22.912 0 00-4.988-7.449 1 1 0 111.414-1.415 24.89 24.89 0 015.422 8.098 1 1 0 01-.924 1.384z"/></g><g><path d="M17.174 26.813a1 1 0 01-1-1 24.888 24.888 0 011.912-9.552 1 1 0 011.848.766 22.89 22.89 0 00-1.76 8.788 1 1 0 01-1 .998z"/><path d="M32.004 30.633a1 1 0 01-.924-.618c-2.35-5.673-6.771-10.094-12.453-12.448a1 1 0 01.766-1.848c6.175 2.559 10.981 7.364 13.535 13.53a1.001 1.001 0 01-.924 1.384z"/></g></svg>